<svg width="33" height="34" viewBox="0 0 33 34" fill="none" xmlns="http://www.w3.org/2000/svg">
<g filter="url(#filter0_d_529_1269)">
<path d="M25.1641 7.65906C23.543 6.87826 21.8325 6.32099 20.0751 6.00114C20.0592 5.99832 20.0428 6.00076 20.0283 6.0081C20.0137 6.01544 20.0017 6.02733 19.9938 6.04214C19.7735 6.45211 19.5298 6.98835 19.3595 7.40816C17.4651 7.10643 15.5383 7.10643 13.6439 7.40816C13.4539 6.9405 13.239 6.48443 13.0002 6.04214C12.9922 6.02749 12.9801 6.01574 12.9656 6.00842C12.9511 6.0011 12.9348 5.99856 12.9189 6.00114C11.1611 6.31928 9.45021 6.87684 7.82991 7.65906C7.81605 7.66461 7.80445 7.67504 7.7971 7.68858C4.55651 12.7706 3.66745 17.7279 4.10339 22.623C4.10495 22.6459 4.11901 22.6689 4.1362 22.6836C6.02325 24.1507 8.13396 25.2708 10.3783 25.9962C10.3942 26.0014 10.4112 26.0013 10.4269 25.9957C10.4427 25.99 10.4563 25.9793 10.4658 25.965C10.9471 25.2763 11.3752 24.5498 11.7439 23.7856C11.7516 23.7699 11.7543 23.752 11.7514 23.7345C11.7486 23.7171 11.7405 23.7011 11.7283 23.6889C11.7202 23.6809 11.7107 23.6747 11.7002 23.6708C11.027 23.3993 10.375 23.0731 9.7502 22.6951C9.73275 22.6847 9.71977 22.6677 9.71395 22.6476C9.70814 22.6274 9.70993 22.6057 9.71895 22.5869C9.72427 22.5747 9.73231 22.564 9.74239 22.5557C9.87364 22.4524 10.0049 22.3442 10.1299 22.236C10.1409 22.2266 10.1542 22.2206 10.1682 22.2186C10.1823 22.2166 10.1965 22.2186 10.2096 22.2245C14.3017 24.1858 18.7314 24.1858 22.7735 22.2245C22.787 22.2183 22.8018 22.2162 22.8164 22.2182C22.831 22.2202 22.8448 22.2264 22.8563 22.236C22.9813 22.3442 23.1126 22.4524 23.2438 22.5557C23.2544 22.5639 23.263 22.5747 23.2687 22.5872C23.2744 22.5996 23.277 22.6134 23.2764 22.6272C23.2758 22.641 23.2719 22.6544 23.2651 22.6663C23.2584 22.6781 23.2489 22.688 23.2376 22.6951C22.6142 23.0765 21.9614 23.4024 21.286 23.6692C21.2752 23.6733 21.2655 23.6798 21.2574 23.6883C21.2493 23.6968 21.243 23.7071 21.2391 23.7184C21.2355 23.7294 21.2341 23.741 21.2349 23.7525C21.2357 23.7641 21.2387 23.7754 21.2438 23.7856C21.6188 24.5482 22.0485 25.2763 22.5204 25.965C22.5299 25.9793 22.5435 25.99 22.5593 25.9957C22.575 26.0013 22.592 26.0014 22.6079 25.9962C24.856 25.2731 26.9701 24.1528 28.8594 22.6836C28.8688 22.6768 28.8767 22.6677 28.8824 22.6572C28.8881 22.6467 28.8914 22.635 28.8922 22.623C29.4141 16.9637 28.0188 12.0474 25.1954 7.69022C25.1925 7.68302 25.1883 7.67653 25.1829 7.67116C25.1775 7.66579 25.1711 7.66167 25.1641 7.65906ZM12.3549 19.6417C11.1221 19.6417 10.108 18.4544 10.108 16.9982C10.108 15.5403 11.1033 14.353 12.3549 14.353C13.6158 14.353 14.6205 15.5502 14.6017 16.9982C14.6017 18.4544 13.6064 19.6417 12.3549 19.6417ZM20.661 19.6417C19.4298 19.6417 18.4142 18.4544 18.4142 16.9982C18.4142 15.5403 19.4095 14.353 20.661 14.353C21.922 14.353 22.9282 15.5502 22.9079 16.9982C22.9079 18.4544 21.922 19.6417 20.661 19.6417Z" fill="#ABB2BF"/>
</g>
<defs>
<filter id="filter0_d_529_1269" x="-3" y="0" width="40" height="40" filterUnits="userSpaceOnUse" color-interpolation-filters="sRGB">
<feFlood flood-opacity="0" result="BackgroundImageFix"/>
<feColorMatrix in="SourceAlpha" type="matrix" values="0 0 0 0 0 0 0 0 0 0 0 0 0 0 0 0 0 0 127 0" result="hardAlpha"/>
<feOffset dy="4"/>
<feGaussianBlur stdDeviation="2"/>
<feComposite in2="hardAlpha" operator="out"/>
<feColorMatrix type="matrix" values="0 0 0 0 0 0 0 0 0 0 0 0 0 0 0 0 0 0 0.25 0"/>
<feBlend mode="normal" in2="BackgroundImageFix" result="effect1_dropShadow_529_1269"/>
<feBlend mode="normal" in="SourceGraphic" in2="effect1_dropShadow_529_1269" result="shape"/>
</filter>
</defs>
</svg>
